<svg viewBox="0 0 680 780" xmlns="http://www.w3.org/2000/svg" role="img" font-family="'Hiragino Sans','Helvetica Neue',sans-serif">
<title>Folders（フォルダ一覧）画面 モノクロ案</title>
<desc>ユーザーが自由に作る単語フォルダ一覧。上にウィジェット表示中のフォルダと進捗、下に自作フォルダとサンプルフォルダ。各フォルダに名前・説明・語数。下部に新規フォルダ作成とPhase2のAI生成の予告。タブバーはFoldersがアクティブ。完全モノクロ。</desc>
<rect x="0" y="0" width="680" height="780" rx="16" fill="#EEEEEC" stroke="#E4E4E2"/>
<rect x="170" y="24" width="340" height="732" rx="46" fill="#F2F2F1" stroke="#DEDEDC" stroke-width="1.5"/>
<text x="210" y="60" font-size="13" fill="#1C1C1E">9:41</text>
<text x="430" y="60" font-size="11" fill="#8A8C90">5G</text>
<rect x="458" y="50" width="20" height="11" rx="2" fill="none" stroke="#1C1C1E" stroke-width="1.2"/>
<rect x="460" y="52" width="13" height="7" rx="1" fill="#1C1C1E"/>
<rect x="478" y="53" width="2" height="5" rx="1" fill="#1C1C1E"/>
<text x="198" y="106" font-size="28" fill="#1C1C1E">Folders</text>
<text x="198" y="128" font-size="13" fill="#8A8C90">自分で作る単語フォルダ</text>
<text x="198" y="164" font-size="12" fill="#8A8C90">使用中</text>
<rect x="190" y="176" width="300" height="84" rx="16" fill="#FFFFFF" stroke="#E9E9E7"/>
<text x="212" y="206" font-size="16" fill="#1C1C1E">韓国旅行で使う単語</text>
<text x="470" y="206" text-anchor="end" font-size="11" fill="#1C1C1E">✓ 表示中</text>
<text x="212" y="226" font-size="12" fill="#8A8C90">カフェ・買い物・交通</text>
<rect x="212" y="242" width="190" height="5" rx="2.5" fill="#E6E6E4"/>
<rect x="212" y="242" width="71" height="5" rx="2.5" fill="#1C1C1E"/>
<text x="470" y="247" text-anchor="end" font-size="11" fill="#8A8C90">12 / 32 resting</text>
<text x="198" y="288" font-size="12" fill="#8A8C90">フォルダ</text>
<rect x="190" y="300" width="300" height="68" rx="16" fill="#FFFFFF" stroke="#E9E9E7"/>
<text x="212" y="330" font-size="15" fill="#1C1C1E">英語会議</text>
<text x="212" y="350" font-size="11" fill="#8A8C90">仕事で使う表現 ・ 18 words</text>
<rect x="400" y="318" width="68" height="30" rx="9" fill="#F6F6F5" stroke="#DADAD8"/>
<text x="434" y="337" text-anchor="middle" font-size="12" fill="#1C1C1E">開く</text>
<rect x="190" y="376" width="300" height="68" rx="16" fill="#FFFFFF" stroke="#E9E9E7"/>
<text x="212" y="406" font-size="15" fill="#1C1C1E">デザイナー英語</text>
<text x="212" y="426" font-size="11" fill="#8A8C90">制作で使う言葉 ・ 24 words</text>
<rect x="400" y="394" width="68" height="30" rx="9" fill="#F6F6F5" stroke="#DADAD8"/>
<text x="434" y="413" text-anchor="middle" font-size="12" fill="#1C1C1E">開く</text>
<rect x="190" y="452" width="300" height="68" rx="16" fill="#FFFFFF" stroke="#E9E9E7"/>
<text x="212" y="482" font-size="15" fill="#1C1C1E">カフェで使う言葉</text>
<text x="212" y="502" font-size="11" fill="#8A8C90">注文・買い物 ・ 12 words</text>
<rect x="400" y="470" width="68" height="30" rx="9" fill="#F6F6F5" stroke="#DADAD8"/>
<text x="434" y="489" text-anchor="middle" font-size="12" fill="#1C1C1E">開く</text>
<text x="212" y="558" font-size="12" fill="#8A8C90">＋ フォルダを作る</text>
<text x="212" y="580" font-size="11" fill="#BCBEC2">AI でテーマから作る → Phase 2</text>
<line x1="170" y1="694" x2="510" y2="694" stroke="#E4E4E2"/>
<rect x="218" y="710" width="18" height="18" rx="4" fill="none" stroke="#8A8C90" stroke-width="1.6"/>
<text x="227" y="746" text-anchor="middle" font-size="11" fill="#8A8C90">Today</text>
<rect x="331" y="712" width="18" height="2.6" rx="1.3" fill="#1C1C1E"/>
<rect x="331" y="718" width="18" height="2.6" rx="1.3" fill="#1C1C1E"/>
<rect x="331" y="724" width="18" height="2.6" rx="1.3" fill="#1C1C1E"/>
<text x="340" y="746" text-anchor="middle" font-size="11" fill="#1C1C1E">Folders</text>
<circle cx="453" cy="719" r="9" fill="none" stroke="#8A8C90" stroke-width="1.6"/>
<circle cx="453" cy="719" r="2.4" fill="#8A8C90"/>
<text x="453" y="746" text-anchor="middle" font-size="11" fill="#8A8C90">Settings</text>
</svg>
