<svg viewBox="0 0 680 780" xmlns="http://www.w3.org/2000/svg" role="img" font-family="'Hiragino Sans','Helvetica Neue',sans-serif">
<title>Home（Today）画面 モノクロ案（段階バー版）</title>
<desc>完全モノクロのiPhone Home画面。上に進捗カード（Learned 24 / Learning 8）、今日の単語リスト。各単語に信号風の段階バー、1語はRestingで淡色。下にToday/Folders/Settingsのタブバー。操作ボタンなしの受け身モデル。</desc>
<rect x="0" y="0" width="680" height="780" rx="16" fill="#EEEEEC" stroke="#E4E4E2"/>
<rect x="170" y="24" width="340" height="732" rx="46" fill="#F2F2F1" stroke="#DEDEDC" stroke-width="1.5"/>
<text x="210" y="60" font-size="13" fill="#1C1C1E">9:41</text>
<text x="430" y="60" font-size="11" fill="#8A8C90">5G</text>
<rect x="458" y="50" width="20" height="11" rx="2" fill="none" stroke="#1C1C1E" stroke-width="1.2"/>
<rect x="460" y="52" width="13" height="7" rx="1" fill="#1C1C1E"/>
<rect x="478" y="53" width="2" height="5" rx="1" fill="#1C1C1E"/>
<text x="198" y="106" font-size="28" fill="#1C1C1E">Today</text>
<text x="198" y="128" font-size="13" fill="#8A8C90">6月19日（金）</text>
<rect x="190" y="146" width="300" height="96" rx="16" fill="#FFFFFF" stroke="#E9E9E7"/>
<text x="214" y="198" font-size="30" fill="#1C1C1E">24</text>
<text x="214" y="218" font-size="12" fill="#8A8C90">Learned</text>
<text x="322" y="198" font-size="30" fill="#1C1C1E">8</text>
<text x="322" y="218" font-size="12" fill="#8A8C90">Learning</text>
<rect x="214" y="228" width="252" height="4" rx="2" fill="#E6E6E4"/>
<rect x="214" y="228" width="189" height="4" rx="2" fill="#1C1C1E"/>
<text x="198" y="274" font-size="13" fill="#8A8C90">今日の単語</text>
<text x="482" y="274" text-anchor="end" font-size="12" fill="#8A8C90">5 words</text>
<rect x="190" y="288" width="300" height="300" rx="16" fill="#FFFFFF" stroke="#E9E9E7"/>
<text x="214" y="322" font-size="18" fill="#1C1C1E">감사합니다</text>
<text x="318" y="322" font-size="11" fill="#5E6066">カムサハムニダ</text>
<text x="214" y="342" font-size="12" fill="#8A8C90">ありがとうございます</text>
<rect x="440" y="320" width="4" height="6" rx="2" fill="#1C1C1E"/>
<rect x="446.5" y="316" width="4" height="10" rx="2" fill="#1C1C1E"/>
<rect x="453" y="312" width="4" height="14" rx="2" fill="#D6D6D4"/>
<line x1="214" y1="360" x2="466" y2="360" stroke="#EFEFED"/>
<text x="214" y="394" font-size="18" fill="#1C1C1E">얼마예요?</text>
<text x="300" y="394" font-size="11" fill="#5E6066">オルマエヨ</text>
<text x="214" y="414" font-size="12" fill="#8A8C90">いくらですか</text>
<rect x="440" y="392" width="4" height="6" rx="2" fill="#1C1C1E"/>
<rect x="446.5" y="388" width="4" height="10" rx="2" fill="#D6D6D4"/>
<rect x="453" y="384" width="4" height="14" rx="2" fill="#D6D6D4"/>
<line x1="214" y1="432" x2="466" y2="432" stroke="#EFEFED"/>
<text x="214" y="466" font-size="18" fill="#1C1C1E">어디예요?</text>
<text x="300" y="466" font-size="11" fill="#5E6066">オディエヨ</text>
<text x="214" y="486" font-size="12" fill="#8A8C90">どこですか</text>
<rect x="440" y="464" width="4" height="6" rx="2" fill="#1C1C1E"/>
<rect x="446.5" y="460" width="4" height="10" rx="2" fill="#1C1C1E"/>
<rect x="453" y="456" width="4" height="14" rx="2" fill="#D6D6D4"/>
<line x1="214" y1="504" x2="466" y2="504" stroke="#EFEFED"/>
<text x="214" y="538" font-size="18" fill="#BCBEC2">안녕하세요</text>
<text x="318" y="538" font-size="11" fill="#CACBCE">アンニョンハセヨ</text>
<text x="214" y="558" font-size="12" fill="#CACBCE">こんにちは</text>
<text x="420" y="542" text-anchor="end" font-size="11" fill="#8A8C90">Resting</text>
<rect x="440" y="536" width="4" height="6" rx="2" fill="#D6D6D4"/>
<rect x="446.5" y="532" width="4" height="10" rx="2" fill="#D6D6D4"/>
<rect x="453" y="528" width="4" height="14" rx="2" fill="#D6D6D4"/>
<text x="198" y="616" font-size="12" fill="#A7A9AD">次に出る　이거 주세요 ・ 도와주세요 …</text>
<line x1="170" y1="694" x2="510" y2="694" stroke="#E4E4E2"/>
<rect x="218" y="710" width="18" height="18" rx="4" fill="#1C1C1E"/>
<text x="227" y="746" text-anchor="middle" font-size="11" fill="#1C1C1E">Today</text>
<rect x="331" y="712" width="18" height="2.6" rx="1.3" fill="#8A8C90"/>
<rect x="331" y="718" width="18" height="2.6" rx="1.3" fill="#8A8C90"/>
<rect x="331" y="724" width="18" height="2.6" rx="1.3" fill="#8A8C90"/>
<text x="340" y="746" text-anchor="middle" font-size="11" fill="#8A8C90">Folders</text>
<circle cx="453" cy="719" r="9" fill="none" stroke="#8A8C90" stroke-width="1.6"/>
<circle cx="453" cy="719" r="2.4" fill="#8A8C90"/>
<text x="453" y="746" text-anchor="middle" font-size="11" fill="#8A8C90">Settings</text>
</svg>
