<svg viewBox="0 0 680 780" xmlns="http://www.w3.org/2000/svg" role="img" font-family="'Hiragino Sans','Helvetica Neue',sans-serif">
<title>単語詳細画面 モノクロ案</title>
<desc>単語の詳細。大きな単語・読み方・意味、例文、出会った回数（正確な回数）。音声ボタン（P1）。下部に任意の「もう知ってる→お休み」ボタン。戻る矢印とフォルダ名。完全モノクロ。</desc>
<rect x="0" y="0" width="680" height="780" rx="16" fill="#EEEEEC" stroke="#E4E4E2"/>
<rect x="170" y="24" width="340" height="732" rx="46" fill="#F2F2F1" stroke="#DEDEDC" stroke-width="1.5"/>
<text x="210" y="60" font-size="13" fill="#1C1C1E">9:41</text>
<text x="430" y="60" font-size="11" fill="#8A8C90">5G</text>
<rect x="458" y="50" width="20" height="11" rx="2" fill="none" stroke="#1C1C1E" stroke-width="1.2"/>
<rect x="460" y="52" width="13" height="7" rx="1" fill="#1C1C1E"/>
<rect x="478" y="53" width="2" height="5" rx="1" fill="#1C1C1E"/>
<text x="198" y="102" font-size="20" fill="#1C1C1E">‹</text>
<text x="218" y="102" font-size="13" fill="#8A8C90">韓国旅行で使う言葉</text>
<text x="198" y="170" font-size="40" fill="#1C1C1E">감사합니다</text>
<circle cx="450" cy="158" r="20" fill="#F4F4F3" stroke="#E2E2E0"/>
<path d="M444 151 h4 l6 -5 v18 l-6 -5 h-4 z" fill="#1C1C1E"/>
<path d="M456 153 a7 7 0 0 1 0 12" fill="none" stroke="#1C1C1E" stroke-width="1.6" stroke-linecap="round"/>
<text x="198" y="200" font-size="16" fill="#5E6066">カムサハムニダ</text>
<text x="450" y="192" text-anchor="middle" font-size="11" fill="#8A8C90">音声</text>
<text x="198" y="238" font-size="20" fill="#1C1C1E">ありがとうございます</text>
<line x1="198" y1="262" x2="482" y2="262" stroke="#E9E9E7"/>
<text x="198" y="294" font-size="12" fill="#8A8C90">例文</text>
<text x="198" y="320" font-size="16" fill="#1C1C1E">정말 감사합니다.</text>
<text x="198" y="344" font-size="13" fill="#8A8C90">本当にありがとうございます。</text>
<line x1="198" y1="372" x2="482" y2="372" stroke="#E9E9E7"/>
<text x="198" y="404" font-size="12" fill="#8A8C90">この単語に出会った回数</text>
<rect x="198" y="418" width="284" height="6" rx="3" fill="#E6E6E4"/>
<rect x="198" y="418" width="118" height="6" rx="3" fill="#1C1C1E"/>
<text x="198" y="446" font-size="11" fill="#8A8C90">5回 ・ あと数回でお休みへ</text>
<rect x="198" y="486" width="284" height="48" rx="12" fill="#FFFFFF" stroke="#DADAD8"/>
<text x="340" y="515" text-anchor="middle" font-size="14" fill="#1C1C1E">もう知ってる → お休みにする</text>
<text x="340" y="556" text-anchor="middle" font-size="11" fill="#BCBEC2">※ 操作しなくても、見るほど自然にお休みになります</text>
<line x1="170" y1="694" x2="510" y2="694" stroke="#E4E4E2"/>
<rect x="218" y="710" width="18" height="18" rx="4" fill="none" stroke="#8A8C90" stroke-width="1.6"/>
<text x="227" y="746" text-anchor="middle" font-size="11" fill="#8A8C90">Today</text>
<rect x="331" y="712" width="18" height="2.6" rx="1.3" fill="#8A8C90"/>
<rect x="331" y="718" width="18" height="2.6" rx="1.3" fill="#8A8C90"/>
<rect x="331" y="724" width="18" height="2.6" rx="1.3" fill="#8A8C90"/>
<text x="340" y="746" text-anchor="middle" font-size="11" fill="#8A8C90">Folders</text>
<circle cx="453" cy="719" r="9" fill="none" stroke="#8A8C90" stroke-width="1.6"/>
<circle cx="453" cy="719" r="2.4" fill="#8A8C90"/>
<text x="453" y="746" text-anchor="middle" font-size="11" fill="#8A8C90">Settings</text>
</svg>
